<?xml version="1.0" standalone="no"?>
<!DOCTYPE svg PUBLIC "-//W3C//DTD SVG 20010904//EN"
 "http://www.w3.org/TR/2001/REC-SVG-20010904/DTD/svg10.dtd">
<svg version="1.0" xmlns="http://www.w3.org/2000/svg"
 width="260.000000pt" height="260.000000pt" viewBox="0 0 260.000000 260.000000"
 preserveAspectRatio="xMidYMid meet">
<metadata>
Created by potrace 1.11, written by Peter Selinger 2001-2013
</metadata>
<g transform="translate(0.000000,260.000000) scale(0.100000,-0.100000)"
fill="#000000" stroke="none">
<path d="M1026 2424 c-54 -19 -102 -58 -110 -89 -4 -14 -13 -25 -20 -25 -29 0
-176 -82 -223 -124 -101 -91 -136 -212 -83 -287 38 -54 92 -96 162 -126 26
-12 26 -12 17 20 -24 84 2 160 76 225 26 23 52 42 58 42 12 0 1 -1534 -12
-1624 -1 -11 -96 6 -154 27 -51 20 -53 18 -48 -72 3 -56 16 -68 107 -98 l85
-28 -1 -50 c-3 -81 -5 -77 48 -70 92 12 108 16 173 49 57 29 78 34 165 39 256
14 453 121 567 310 55 90 71 154 72 277 0 102 -4 122 -43 210 -35 79 -150 171
-244 194 -26 6 -20 10 67 55 257 131 389 338 372 579 -22 315 -326 505 -809
506 -92 0 -98 1 -98 20 0 12 -4 27 -9 35 -12 19 -68 21 -115 5z m396 -314
c363 -86 454 -378 196 -632 -104 -102 -287 -190 -425 -205 l-53 -5 -1 143 c-1
176 -1 571 0 657 l1 63 105 -2 c58 -1 136 -9 177 -19z m-18 -1001 c162 -48
240 -147 238 -306 -1 -212 -176 -381 -414 -400 l-68 -6 -1 79 c0 44 -3 208 -5
366 l-5 287 28 3 c59 7 161 -4 227 -23z"/>
</g>
</svg>
